<?xml version="1.0" encoding="utf-8"?>
<!-- Generator: Adobe Illustrator 26.5.0, SVG Export Plug-In . SVG Version: 6.00 Build 0)  -->
<svg version="1.1" id="Layer_1" xmlns="http://www.w3.org/2000/svg" xmlns:xlink="http://www.w3.org/1999/xlink" x="0px" y="0px"
	 viewBox="0 0 152.6 16" style="enable-background:new 0 0 152.6 16;" xml:space="preserve">
<style type="text/css">
	.st0{display:none;fill:#FFFFFF;}
	.st1{fill:#FFFFFF;}
</style>
<path class="st0" d="M46.5,2.3H51V15h2.2V2.3h4.5V0.5H46.5V2.3z M62.2,8.5c0-1.7,1.1-2.7,2.6-2.7c1.5,0,2.3,0.9,2.3,2.5V15h2.1V8.1
	c0-2.7-1.5-4.1-3.7-4.1c-1.7,0-2.7,0.7-3.2,1.9h-0.1V0.5H60V15h2.1V8.5z M76.8,15.2c2.4,0,4.1-1.2,4.5-2.9l-2-0.4
	c-0.4,1-1.3,1.6-2.5,1.6c-1.8,0-3-1.2-3.1-3.3h7.8V9.4c0-3.9-2.4-5.5-4.8-5.5c-3,0-5,2.3-5,5.7C71.6,13,73.6,15.2,76.8,15.2z
	 M73.7,8.6c0.1-1.5,1.2-2.9,2.9-2.9c1.6,0,2.7,1.2,2.7,2.9H73.7z M83.8,15h2.1V8.3c0-1.5,1-2.5,2.2-2.5c1.2,0,2,0.8,2,2V15h2.1V8
	c0-1.3,0.8-2.3,2.2-2.3c1.1,0,2,0.6,2,2.1V15h2.1V7.7c0-2.5-1.4-3.7-3.4-3.7c-1.6,0-2.7,0.8-3.3,1.9h-0.1c-0.5-1.2-1.5-1.9-2.9-1.9
	c-1.4,0-2.5,0.7-3,1.9h-0.1V4.1h-2V15z M106.2,15.2c2.4,0,4.1-1.2,4.5-2.9l-2-0.4c-0.4,1-1.3,1.6-2.5,1.6c-1.8,0-3-1.2-3.1-3.3h7.8
	V9.4c0-3.9-2.4-5.5-4.8-5.5c-3,0-5,2.3-5,5.7C101,13,103,15.2,106.2,15.2z M103.1,8.6c0.1-1.5,1.2-2.9,2.9-2.9
	c1.6,0,2.7,1.2,2.7,2.9H103.1z M113.4,15h2.1v-1.7h0.2c0.4,0.7,1.2,1.9,3.2,1.9c2.6,0,4.6-2.1,4.6-5.6c0-3.5-1.9-5.6-4.6-5.6
	c-2,0-2.8,1.2-3.1,1.9h-0.1V0.5h-2.1V15z M115.5,9.5c0-2.3,1-3.8,2.8-3.8c1.9,0,2.9,1.6,2.9,3.8c0,2.2-1,3.9-2.9,3.9
	C116.5,13.4,115.5,11.8,115.5,9.5z M128.9,15.2c1.8,0,2.8-0.9,3.2-1.7h0.1V15h2.1V7.8c0-3.2-2.5-3.8-4.2-3.8c-2,0-3.8,0.8-4.5,2.8
	l2,0.5c0.3-0.8,1.1-1.5,2.5-1.5c1.4,0,2.1,0.7,2.1,2v0c0,0.8-0.8,0.8-2.8,1c-2.1,0.2-4.2,0.8-4.2,3.3
	C125.2,14.1,126.9,15.2,128.9,15.2z M129.4,13.5c-1.2,0-2.1-0.5-2.1-1.6c0-1.1,1-1.5,2.2-1.7c0.7-0.1,2.3-0.3,2.6-0.6v1.4
	C132.2,12.4,131.2,13.5,129.4,13.5z M144,10.5c0,1.9-1.4,2.7-2.6,2.7c-1.3,0-2.2-1-2.2-2.4V4.1h-2.1V11c0,2.7,1.5,4.1,3.6,4.1
	c1.6,0,2.8-0.9,3.3-2h0.1V15h2.1V4.1H144V10.5z M150.4,15.1c0.8,0,1.4-0.6,1.4-1.4c0-0.8-0.6-1.4-1.4-1.4c-0.8,0-1.4,0.6-1.4,1.4
	C149,14.5,149.6,15.1,150.4,15.1z"/>
<path class="st1" d="M10.4,10.9H6.8l-0.7,2H4l3.5-9.7h2.3l3.4,9.7H11L10.4,10.9z M9.8,9.2L8.6,5.4L7.4,9.2H9.8z"/>
<path class="st1" d="M21.8,9.4h-2.1v3.5h-2V3.2H22c1,0,1.8,0.2,2.3,0.8c0.6,0.5,0.9,1.3,0.9,2.3c0,1.1-0.3,2-0.9,2.4
	C23.7,9.1,22.9,9.4,21.8,9.4z M22.8,7.4c0.3-0.2,0.4-0.6,0.4-1.1S23,5.4,22.8,5.2c-0.3-0.2-0.6-0.3-1.1-0.3h-1.9v2.9h1.9
	C22.1,7.7,22.5,7.6,22.8,7.4z"/>
<path class="st1" d="M33.4,8.6h-4.7v2.5h5.4v1.7h-7.3V3.2h7.1v1.7h-5.1v2.1h4.7V8.6z"/>
<path class="st1" d="M39.8,9.1h-2.1v3.8h-2V3.2h4.8c0.7,0,1.2,0.1,1.6,0.2c0.4,0.2,0.7,0.4,0.9,0.7c0.2,0.2,0.4,0.5,0.5,0.8
	c0.1,0.3,0.2,0.6,0.2,1c0,0.5-0.1,0.9-0.3,1.4c-0.2,0.4-0.6,0.8-1.2,0.9c0.4,0.2,0.8,0.4,1,0.8c0.2,0.3,0.3,0.8,0.3,1.5v0.7
	c0,0.4,0,0.7,0.1,0.9c0.1,0.2,0.2,0.4,0.4,0.6v0.2h-2.2c-0.1-0.2-0.1-0.4-0.1-0.5c-0.1-0.3-0.1-0.6-0.1-0.8l0-0.9
	c0-0.6-0.1-1-0.3-1.2C40.8,9.2,40.4,9.1,39.8,9.1z M41,7.3c0.4-0.2,0.6-0.5,0.6-1.1c0-0.6-0.2-1-0.6-1.2c-0.2-0.1-0.5-0.2-1-0.2
	h-2.4v2.6H40C40.4,7.4,40.8,7.4,41,7.3z"/>
<path class="st1" d="M52.3,4.9h-4.9v2.2h4.3v1.7h-4.3v4.1h-2V3.2h6.9V4.9z"/>
<path class="st1" d="M60.4,8.6h-4.7v2.5H61v1.7h-7.3V3.2h7.1v1.7h-5.1v2.1h4.7V8.6z"/>
<path class="st1" d="M69.5,12.1c-0.7,0.7-1.6,1-2.8,1c-1.4,0-2.5-0.4-3.3-1.3c-0.8-0.9-1.2-2.1-1.2-3.7c0-1.7,0.5-3,1.4-3.9
	c0.8-0.8,1.8-1.2,3-1.2c1.6,0,2.8,0.5,3.6,1.6c0.4,0.6,0.6,1.2,0.7,1.8h-2c-0.1-0.5-0.3-0.8-0.5-1.1c-0.4-0.4-0.9-0.6-1.6-0.6
	c-0.7,0-1.3,0.3-1.7,0.9c-0.4,0.6-0.6,1.4-0.6,2.5s0.2,1.9,0.7,2.4c0.4,0.5,1,0.8,1.7,0.8c0.7,0,1.3-0.2,1.6-0.7
	c0.2-0.2,0.4-0.6,0.5-1.1h2C70.6,10.6,70.2,11.5,69.5,12.1z"/>
<path class="st1" d="M79.4,3.2v1.7h-2.9v8h-2v-8h-2.9V3.2H79.4z"/>
<path class="st1" d="M88.5,12.9h-4.2V3.2h4.2c0.6,0,1.1,0.1,1.5,0.2c0.7,0.2,1.2,0.6,1.7,1.2c0.3,0.5,0.6,1,0.7,1.6
	c0.1,0.6,0.2,1.1,0.2,1.6c0,1.3-0.3,2.4-0.8,3.3C91,12.3,90,12.9,88.5,12.9z M90,5.6c-0.3-0.5-0.9-0.8-1.8-0.8h-1.9v6.3h1.9
	c1,0,1.6-0.5,2-1.4c0.2-0.5,0.3-1.1,0.3-1.8C90.5,6.9,90.3,6.2,90,5.6z"/>
<path class="st1" d="M99.7,10.9h-3.6l-0.7,2h-2.1l3.5-9.7h2.3l3.4,9.7h-2.2L99.7,10.9z M99.2,9.2l-1.2-3.8l-1.2,3.8H99.2z"/>
<path class="st1" d="M110.4,3.2l-3.2,6.1v3.6h-2V9.2l-3.4-6.1h2.4l2,4.2l1.9-4.2H110.4z"/>
<path class="st1" d="M114.9,3.2h2v9.7h-2V3.2z"/>
<path class="st1" d="M126.6,12.9h-2l-4-6.9v6.9h-1.9V3.2h2.1l3.9,6.8V3.2h1.9V12.9z"/>
<path class="st1" d="M132.2,3.2h2v8h4.8v1.7h-6.8V3.2z"/>
<path class="st1" d="M146.2,10.9h-3.6l-0.7,2h-2.1l3.5-9.7h2.3l3.4,9.7h-2.2L146.2,10.9z M145.6,9.2l-1.2-3.8l-1.2,3.8H145.6z"/>
</svg>
